<svg width="0" height="0" class="hidden">
  <symbol xmlns="http://www.w3.org/2000/svg" fill="none" viewBox="0 0 16 16" id="triangle-down">
    <path fill="#A9A9A9" d="m11.33 6-3.333 4-3.333-4h6.667Z"></path>
  </symbol>
  <symbol xmlns="http://www.w3.org/2000/svg" viewBox="0 0 16 16" id="wait">
    <path d="M9.898 3.589c-.284-.122-.489-.39-.489-.7 0-.454.426-.79.848-.624a6.17 6.17 0 0 1 3.478 3.481c.167.423-.17.848-.624.848-.31 0-.578-.204-.7-.488A4.807 4.807 0 0 0 9.898 3.59Zm-6.31 2.517c-.121.284-.39.488-.7.488-.453 0-.79-.425-.623-.847a6.168 6.168 0 0 1 3.481-3.482c.423-.166.848.17.848.624 0 .31-.204.578-.488.7A4.813 4.813 0 0 0 3.59 6.106Zm2.52 6.31c.283.121.486.389.486.697 0 .453-.424.789-.846.623a6.17 6.17 0 0 1-3.483-3.479c-.166-.422.17-.848.624-.848.31 0 .578.205.7.49a4.813 4.813 0 0 0 2.519 2.516Zm6.303-2.518c.122-.284.39-.489.7-.489.454 0 .79.426.624.848a6.172 6.172 0 0 1-3.478 3.478c-.422.166-.848-.17-.848-.624 0-.31.205-.578.49-.7a4.802 4.802 0 0 0 2.512-2.513Z"></path>
  </symbol>
  <symbol xmlns="http://www.w3.org/2000/svg" fill="none" viewBox="0 0 16 16" id="error-info">
    <path fill="#EB5757" d="M8.003 14.665A6.667 6.667 0 1 1 14.669 8a6.674 6.674 0 0 1-6.666 6.666Zm0-4.666a.667.667 0 1 0 0 1.333.667.667 0 0 0 0-1.333Zm0-5.334a.667.667 0 0 0-.667.667v2.667a.667.667 0 1 0 1.333 0V5.332a.667.667 0 0 0-.666-.667Z"></path>
  </symbol>
  <symbol xmlns="http://www.w3.org/2000/svg" viewBox="0 0 12 12" id="remove">
    <path d="M3.5 2a1 1 0 0 1 1-1h3a1 1 0 0 1 1 1v1h.995a.48.48 0 0 1 .01 0h.995a.5.5 0 0 1 0 1h-.534l-.434 6.071a1 1 0 0 1-.998.929H3.466a1 1 0 0 1-.998-.929L2.034 4H1.5a.5.5 0 0 1 0-1h.996a.48.48 0 0 1 .01 0H3.5V2Zm1 1h3V2h-3v1ZM3.037 4l.429 6h5.068l.429-6H3.037Z"></path>
  </symbol>
  <symbol xmlns="http://www.w3.org/2000/svg" fill="none" viewBox="0 0 16 16" id="check-mark">
    <path fill="#545454" d="M13.776 3.5c.275.245.3.666.056.942l-7.112 8a.667.667 0 0 1-.996 0l-3.556-4a.667.667 0 0 1 .997-.886l3.057 3.44 6.613-7.44a.667.667 0 0 1 .941-.056Z"></path>
  </symbol>
  <symbol xmlns="http://www.w3.org/2000/svg" fill="none" viewBox="0 0 16 16" id="plus">
    <path fill="#2F80ED" d="M8 2.667c.368 0 .666.298.666.667v4h4a.667.667 0 1 1 0 1.333h-4v4a.667.667 0 1 1-1.333 0v-4h-4a.667.667 0 0 1 0-1.333h4v-4c0-.369.299-.667.667-.667Z"></path>
  </symbol>
  <symbol xmlns="http://www.w3.org/2000/svg" fill="none" viewBox="0 0 24 24" id="success">
    <path fill="#6FCF97" d="M12.004 3.998a8 8 0 1 0 0 16 8 8 0 0 0 0-16Zm-10 8c0-5.523 4.477-10 10-10s10 4.477 10 10-4.477 10-10 10-10-4.477-10-10Zm14.664-3.247a1 1 0 0 1 .083 1.411l-5.333 6a1 1 0 0 1-1.495 0l-2.667-3a1 1 0 0 1 1.495-1.328l1.92 2.159 4.586-5.16a1 1 0 0 1 1.411-.082Z"></path>
  </symbol>
  <symbol xmlns="http://www.w3.org/2000/svg" fill="none" viewBox="0 0 17 16" id="new-user">
    <path fill="#DDD" d="M7.167 2.666a2.667 2.667 0 1 0 0 5.334 2.667 2.667 0 0 0 0-5.334Zm-4 2.667a4 4 0 1 1 8 0 4 4 0 0 1-8 0Zm10 2c.369 0 .667.298.667.667v.666h.667a.667.667 0 0 1 0 1.334h-.667v.666a.667.667 0 0 1-1.333 0V10h-.667a.667.667 0 1 1 0-1.334h.667V8c0-.369.298-.667.666-.667ZM4.834 12c-.84 0-1.667.809-1.667 2a.667.667 0 0 1-1.333 0c0-1.755 1.262-3.334 3-3.334h4.667c1.737 0 3 1.58 3 3.334a.667.667 0 0 1-1.334 0c0-1.191-.827-2-1.666-2H4.834Z"></path>
  </symbol>
  <symbol xmlns="http://www.w3.org/2000/svg" fill="none" viewBox="0 0 24 24" id="close">
    <path fill="#939393" d="M5.293 5.293a1 1 0 0 1 1.414 0L12 10.586l5.293-5.293a1 1 0 1 1 1.414 1.414L13.414 12l5.293 5.293a1 1 0 0 1-1.414 1.414L12 13.414l-5.293 5.293a1 1 0 0 1-1.414-1.414L10.586 12 5.293 6.707a1 1 0 0 1 0-1.414Z"></path>
  </symbol>
  <symbol xmlns="http://www.w3.org/2000/svg" fill="none" viewBox="0 0 31 24" id="contacts">
    <path fill="#E0E0E0" d="M24.159 17.16c-.33-.395-.992-.762-1.928-1.044-1.984-.62-4.133-1.381-4.133-2.763v-.592c0-.676.193-1.127.303-1.297.055-.084.083-.113.083-.14.633-.198.909-1.072.826-1.608-.027-.254-.138-.395-.248-.451 0-.17.055-.423.055-.62.028-.254.083-.536.083-.79V7.63c-.028-.508-.138-.959-.386-1.325-.578-1.128-1.68-1.805-2.92-1.805s-2.342.705-2.92 1.805c-.22.394-.359.845-.386 1.325v.253c0 .254.055.508.083.79.027.197.055.451.055.62a.647.647 0 0 0-.248.451c-.083.536.193 1.41.826 1.607 0 0 .028.057.083.113.11.198.303.62.303 1.297v.621c0 1.381-2.121 2.142-4.133 2.763-.964.282-1.598.648-1.928 1.043-.248.31-.248.564-.248.677v1.494c0 .056.027.141.165.141h16.668c.138 0 .138-.141.138-.141v-1.494c0-.15.055-.423-.193-.705Z"></path>
    <path stroke="#E0E0E0" d="M23.776 17.48c-.236-.28-.782-.611-1.69-.885l-.005-.001c-.987-.309-2.068-.668-2.905-1.138-.811-.455-1.578-1.119-1.578-2.103V12.76c0-.765.216-1.312.384-1.57l.002.001h-.002l.002-.003v-.234l.35-.11c.131-.04.27-.167.375-.401.103-.234.132-.49.107-.652l-.002-.01V9.77a.342.342 0 0 0-.018-.08l-.234-.12v-.305c0-.114.017-.245.029-.34 0-.008.002-.015.003-.022.014-.116.023-.197.023-.258v-.027l.003-.027c.013-.116.027-.215.04-.306.022-.159.04-.29.04-.43V7.643c-.026-.45-.123-.798-.3-1.06l-.017-.024-.014-.027C17.875 5.569 16.943 5 15.894 5c-1.043 0-1.98.592-2.478 1.537l-.006.011a2.58 2.58 0 0 0-.322 1.097V7.884c0 .093.01.194.027.32l.013.095c.013.096.028.206.04.316.027.2.058.477.058.68v.246l-.196.15a.123.123 0 0 0-.031.035.197.197 0 0 0-.025.08l-.001.008-.001.008c-.025.162.004.417.107.65.104.235.244.363.374.403l.206.064.087.178.045.046.032.058c.143.256.367.762.367 1.541v.057l9.586 4.663Zm0 0 .008.01m-.008-.01.008.01m0 0 .375-.33-.375.33Zm-9.594-4.11v.002-.002Zm0 0v-.001m0 .001v-.001m0 0v-.002m0 .002v-.002m0 0v-.001m0 .001v-.001m0 0v-.002m0 .002v-.002m0 0v-.001m0 .001v-.001m0 0v-.002m0 .002v-.002m0 0v-.001m0 .001v-.001m0 0v-.002m0 .002v-.002m0 0v-.001m0 .001v-.001m0 0v-.002m0 .002v-.002m0 0v-.001m0 .001v-.001m0 0v-.002m0 .002v-.002m0 0v-.001m0 .001v-.001m0 0v-.002m0 .002v-.002m0 0v-.001m0 .001v-.001m0 0v-.002m0 .002v-.002m0 0v-.001m0 .001v-.001m0 0v-.002m0 .002v-.002m0 0v-.001m0 .001v-.001m0 0v-.002m0 .002v-.002m0 0v-.001m0 .001v-.001m0 0v-.002m0 .002v-.002m0 0v-.001m0 .001v-.001m0 0v-.002m0 .002v-.002m0 0v-.001m0 .001v-.001m0 0v-.002m0 .002v-.002m0 0v-.001m0 .002v-.002m0 0v-.002m0 .002v-.002m0 0v-.001m0 .002v-.002m0 0v-.002m0 .002v-.002m0 0v-.001m0 .002v-.002m0 0v-.001m0 .001v-.001m0 0v-.002m0 .002v-.002m0 0v-.001m0 .001v-.001m0 0v-.002m0 .002v-.002m0 0v-.001m0 .001v-.001m0 0v-.002m0 .002v-.002m0 0v-.001m0 .001v-.001m0 0v-.002m0 .002v-.002m0 0v-.001m0 .001v-.001m0 0v-.002m0 .002v-.002m0 0v-.001m0 .001v-.001m0 0v-.002m0 .002v-.002m0 0v-.001m0 .001v-.001m0 0v-.002m0 .002v-.002m0 0v-.001m0 .001v-.001m0 0v-.002m0 .002v-.002m0 0v-.001m0 .001v-.001m0 0v-.002m0 .002v-.002m0 0v-.001m0 .001v-.001m0 0v-.001m0 0v-.002m0 .002v-.002m0 0v-.002m0 .002v-.002m0 0V13.3m0 .002V13.3m0 0v-.001m0 .001v-.001m0 0v-.002m0 .002v-.002m0 0v-.001m0 .001v-.001m0 0v-.002m0 .002v-.002m0 0v-.001m0 .001v-.001m0 0v-.002m0 .002v-.002m0 0v-.001m0 .001v-.001m0 0v-.002m0 .002v-.002m0 0v-.001m0 .001v-.001m0 0v-.002m0 .002v-.002m0 0v-.001m0 .001v-.001m0 0v-.002m0 .002v-.002m0 0v-.001m0 .001v-.001m0 0v-.002m0 .002v-.002m0 0v-.001m0 .002v-.002m0 0v-.002m0 .002v-.002m0 0v-.002m0 .001v-.001m0 0v-.002m0 .002v-.002m0 0v-.001m0 .001v-.001m0 0v-.002m0 .002v-.002m0 0v-.001m0 .001v-.001m0 0v-.002m0 .002v-.002m0 0v-.001m0 .001v-.001m0 0v-.002m0 .002v-.002m0 0v-.001m0 .001v-.001m0 0v-.002m0 .002v-.002m0 0v-.001m0 .002v-.002m0 0v-.001m0 .001v-.001m0 0v-.002m0 .002v-.002m0 0v-.001m0 .001v-.001m0 0v-.002m0 .002v-.002m0 0v-.001m0 .001v-.001m0 0v-.002m0 .002v-.002m0 0v-.001m0 .001v-.001m0 0v-.002m0 .002v-.002m0 0v-.001m0 .001v-.001m0 0v-.002m0 .002v-.002m0 0v-.001m0 .002v-.002m0 0v-.001m0 .001v-.001m0 0v-.002m0 .002v-.002m0 0v-.001m0 .001v-.001m0 0v-.002m0 .002v-.002m0 0v-.001m0 .001v-.001m0 0v-.002m0 .002v-.002m0 0v-.001m0 .001v-.001m0 0v-.002m0 .002v-.002m0 0v-.001m0 .002v-.002m0 0v-.001m0 .001v-.001m0 0v-.002m0 .002v-.002m0 0v-.001m0 .001v-.001m0 0v-.002m0 .002v-.002m0 0v-.001m0 .001v-.001m0 0v-.002m0 .002v-.002m0 0v-.001m0 .001v-.001m0 0v-.002m0 .002v-.002m0 0v-.002m0 .001v-.001m0 0v-.002m0 .002v-.002m0 0v-.001m0 .001v-.001m0 0v-.002m0 .002v-.002m0 0v-.001m0 .001v-.001m0 0v-.002m0 .002v-.002m0 0v-.002m0 .001v-.001m0 0v-.002m0 .002v-.002m0 0v-.001m0 .001v-.001m0 0V13.2m0 .002V13.2m0 0V13.2m0 .001V13.2m0 0v-.001m0 .001v-.001m0 0v-.002m0 .002v-.002m0 0v-.001m0 .001v-.001m0 0v-.002m0 .002v-.002m0 0v-.001m0 .001v-.001m0 0v-.002m0 .002v-.002m0 0v-.002m0 .001v-.001m0 0v-.002m0 .002v-.002m0 0v-.001m0 .001v-.001m0 0v-.002m0 .002v-.002m0 0v-.002m0 .001v-.001m0 0v-.002m0 .002v-.002m0 0v-.001m0 .001v-.001m0 0v-.002m0 .002v-.002m0 0v-.002m0 .001v-.001m0 0v-.002m0 .002v-.002m0 0v-.001m0 .001v-.001m0 0v-.002m0 .002v-.002m0 0v-.002m0 .001v-.001m0 0v-.002m0 .002v-.002m0 0v-.001m0 .001v-.001m0 0v-.001m0 0v-.002m0 .002v-.002m0 0v-.001m0 .001v-.001m0 0v-.002m0 .002v-.002m0 0v-.001m0 .001v-.001m0 0v-.001m0 .001v-.001m0 0v-.002m0 .002v-.002m0 0v-.001m0 .001v-.001m0 0v-.002m0 .002v-.002m0 0v-.002m0 .001v-.001m0 0v-.002m0 .002v-.002m0 0v-.001m0 .001v-.001m0 0v-.001m0 .001v-.001m0 0v-.002m0 .002v-.002m0 0v-.001m0 .001v-.001m0 0v-.002m0 .002v-.002m0 0v-.002m0 .001v-.001m0 0v-.002m0 .002v-.002m0 0v-.001m0 .001v-.001m0 0v-.001m0 .001v-.001m0 0v-.002m0 .002v-.002m0 0v-.001m0 .001v-.001m0 0v-.001m0 .001v-.001m0 0v-.002m0 .002v-.002m0 0v-.001m0 .001v-.001m0 0v-.001m0 0v-.002m0 .002v-.002m0 0v-.001m0 .001v-.001m0 0v-.002m0 .002v-.002m0 0v-.002m0 .001v-.001m0 0v-.002m0 .002v-.002m0 0v-.002m0 .001v-.001m0 0v-.002m0 .002v-.002m0 0v-.002m0 .001v-.001m0 0v-.002m0 .002v-.002m0 0v-.002m0 .001v-.001m0 0v-.002m0 .002v-.002m0 0v-.002m0 .001v-.001m0 0v-.002m0 .002v-.002m0 0V13.1m0 .001V13.1m0 0v-.001m0 0v-.002m0 .002v-.002m0 0v-.001m0 .001v-.001m0 0v-.001m0 .001v-.001m0 0v-.002m0 .002v-.002m0 0v-.001m0 .001v-.001m0 0v-.001m0 .001v-.001m0 0v-.002m0 .002v-.002m0 0v-.002m0 .001v-.001m0 0v-.002m0 .002v-.002m0 0v-.002m0 .001v-.001m0 0v-.001m0 .001v-.001m0 0v-.002m0 .002v-.002m0 0v-.002m0 .001v-.001m0 0v-.002m0 .002v-.002m0 0v-.002m0 .001v-.001m0 0v-.001m0 .001v-.001m0 0v-.002m0 .002v-.002m0 0v-.002m0 .001v-.001m0 0v-.001m0 0v-.002m0 .002v-.002m0 0v-.001m0 .001v-.001m0 0v-.001m0 .001v-.001m0 0v-.002m0 .002v-.002m0 0v-.002m0 .001v-.001m0 0v-.001m0 .001v-.001m0 0v-.002m0 .002v-.002m0 0v-.002m0 .001v-.001m0 0v-.001m0 .001v-.001m0 0v-.002m0 .002v-.002m0 0v-.002m0 .001v-.001m0 0v-.001m0 .001v-.001m0 0v-.002m0 .002v-.002m0 0v-.002m0 .001v-.002m0 .001v-.001m0 0v-.001m0 0v-.002m0 .002v-.002m0 0v-.002m0 .001v-.001m0 0v-.001m0 0v-.002m0 .002v-.002m0 0v-.002m0 .001v-.001m0 0v-.001m0 .001v-.001m0 0v-.001m0 0v-.002m0 .002v-.002m0 0v-.002m0 .001v-.001m0 0v-.001m0 .001v-.001m0 0v-.001m0 0v-.002m0 .002v-.002m0 0v-.002m0 .001v-.001m0 0v-.001m0 .001v-.001m0 0v-.001m0 0v-.002m0 .002v-.002m0 0v-.002m0 .001v-.002m0 .001v-.001m0 0v-.001m0 0v-.001m0 0v-.002m0 .002v-.002m0 0v-.002m0 .001v-.002m0 .001v-.001m0 0v-.001m0 0v-.001m0 0v-.002m0 .002v-.002m0 0v-.002m0 .001V13m0 .001v-.001m0 0V13m0 .001V13m0 0v-.001m0 0v-.002m0 .002v-.002m0 0v-.002m0 .001v-.002m0 .001v-.002m0 .001v-.001m0 0v-.001m0 .001v-.001m0 0v-.001m0 0v-.001m0 0v-.002m0 .002v-.002m0 0v-.002m0 .001v-.002m0 .001v-.002m0 .001v-.001m0 0v-.001m0 .001v-.001m0 0v-.001m0 0v-.001m0 0v-.001m0 0v-.002m0 .002v-.002m0 0v-.002m0 .001v-.002m0 .001v-.002m0 .001v-.002m0 .001v-.001m0 0v-.001m0 .001v-.001m0 0v-.001m0 .001v-.001m0 0v-.001m0 0v-.001m0 0v-.001m0 0v-.001m0 0v-.002m0 .002v-.002m0 0Zm-4.492 3.66.007-.003-.148-.477.14.48Z"></path>
    <mask id="a" fill="#fff">
      <path d="M2.215 7.125c0-.207.165-.375.369-.375s.369.168.369.375v.75a.372.372 0 0 1-.37.375.372.372 0 0 1-.368-.375v-.75ZM2.215 9.375c0-.207.165-.375.369-.375s.369.168.369.375v.75a.372.372 0 0 1-.37.375.372.372 0 0 1-.368-.375v-.75ZM2.215 13.125c0-.207.165-.375.369-.375s.369.168.369.375v.75a.372.372 0 0 1-.37.375.372.372 0 0 1-.368-.375v-.75ZM2.215 15.375c0-.207.165-.375.369-.375s.369.168.369.375v.75a.372.372 0 0 1-.37.375.372.372 0 0 1-.368-.375v-.75ZM6.643 7.125c0-.207.166-.375.37-.375.203 0 .369.168.369.375v.75a.372.372 0 0 1-.37.375.372.372 0 0 1-.369-.375v-.75ZM6.643 9.375c0-.207.166-.375.37-.375.203 0 .369.168.369.375v.75a.372.372 0 0 1-.37.375.372.372 0 0 1-.369-.375v-.75ZM6.643 13.125c0-.207.166-.375.37-.375.203 0 .369.168.369.375v.75a.372.372 0 0 1-.37.375.372.372 0 0 1-.369-.375v-.75ZM6.643 15.375c0-.207.166-.375.37-.375.203 0 .369.168.369.375v.75a.372.372 0 0 1-.37.375.372.372 0 0 1-.369-.375v-.75Z"></path>
    </mask>
    <path fill="#E0E0E0" d="M2.215 7.125c0-.207.165-.375.369-.375s.369.168.369.375v.75a.372.372 0 0 1-.37.375.372.372 0 0 1-.368-.375v-.75ZM2.215 9.375c0-.207.165-.375.369-.375s.369.168.369.375v.75a.372.372 0 0 1-.37.375.372.372 0 0 1-.368-.375v-.75ZM2.215 13.125c0-.207.165-.375.369-.375s.369.168.369.375v.75a.372.372 0 0 1-.37.375.372.372 0 0 1-.368-.375v-.75ZM2.215 15.375c0-.207.165-.375.369-.375s.369.168.369.375v.75a.372.372 0 0 1-.37.375.372.372 0 0 1-.368-.375v-.75ZM6.643 7.125c0-.207.166-.375.37-.375.203 0 .369.168.369.375v.75a.372.372 0 0 1-.37.375.372.372 0 0 1-.369-.375v-.75ZM6.643 9.375c0-.207.166-.375.37-.375.203 0 .369.168.369.375v.75a.372.372 0 0 1-.37.375.372.372 0 0 1-.369-.375v-.75ZM6.643 13.125c0-.207.166-.375.37-.375.203 0 .369.168.369.375v.75a.372.372 0 0 1-.37.375.372.372 0 0 1-.369-.375v-.75ZM6.643 15.375c0-.207.166-.375.37-.375.203 0 .369.168.369.375v.75a.372.372 0 0 1-.37.375.372.372 0 0 1-.369-.375v-.75Z"></path>
    <path fill="#E0E0E0" d="M1.953 7.125v.75h2v-.75h-2Zm1.262.75v-.75h-2v.75h2Zm-.631-.625c.363 0 .63.295.63.625h-2c0 .744.599 1.375 1.37 1.375v-2Zm-.631.625c0-.33.267-.625.63-.625v2c.772 0 1.37-.63 1.37-1.375h-2Zm.63-.125a.628.628 0 0 1-.63-.625h2c0-.744-.598-1.375-1.37-1.375v2Zm0-2c-.77 0-1.368.63-1.368 1.375h2c0 .33-.268.625-.631.625v-2Zm-.63 3.625v.75h2v-.75h-2Zm1.262.75v-.75h-2v.75h2ZM2.584 9.5c.363 0 .63.295.63.625h-2c0 .744.599 1.375 1.37 1.375v-2Zm-.631.625c0-.33.267-.625.63-.625v2c.772 0 1.37-.63 1.37-1.375h-2Zm.63-.125a.628.628 0 0 1-.63-.625h2C3.953 8.631 3.355 8 2.583 8v2Zm0-2c-.77 0-1.368.63-1.368 1.375h2c0 .33-.268.625-.631.625V8Zm-.63 5.125v.75h2v-.75h-2Zm1.262.75v-.75h-2v.75h2Zm-.631-.625c.363 0 .63.295.63.625h-2c0 .744.599 1.375 1.37 1.375v-2Zm-.631.625c0-.33.267-.625.63-.625v2c.772 0 1.37-.63 1.37-1.375h-2Zm.63-.125a.628.628 0 0 1-.63-.625h2c0-.744-.598-1.375-1.37-1.375v2Zm0-2c-.77 0-1.368.63-1.368 1.375h2c0 .33-.268.625-.631.625v-2Zm-.63 3.625v.75h2v-.75h-2Zm1.262.75v-.75h-2v.75h2Zm-.631-.625c.363 0 .63.295.63.625h-2c0 .744.599 1.375 1.37 1.375v-2Zm-.631.625c0-.33.267-.625.63-.625v2c.772 0 1.37-.63 1.37-1.375h-2Zm.63-.125a.628.628 0 0 1-.63-.625h2c0-.744-.598-1.375-1.37-1.375v2Zm0-2c-.77 0-1.368.63-1.368 1.375h2c0 .33-.268.625-.631.625v-2Zm3.799-6.875v.75h2v-.75h-2Zm1.261.75v-.75h-2v.75h2Zm-.63-.625c.363 0 .63.295.63.625h-2c0 .744.598 1.375 1.37 1.375v-2Zm-.631.625c0-.33.267-.625.63-.625v2c.772 0 1.37-.63 1.37-1.375h-2Zm.63-.125a.628.628 0 0 1-.63-.625h2c0-.744-.598-1.375-1.37-1.375v2Zm0-2c-.77 0-1.369.63-1.369 1.375h2c0 .33-.267.625-.63.625v-2Zm-.63 3.625v.75h2v-.75h-2Zm1.261.75v-.75h-2v.75h2Zm-.63-.625c.363 0 .63.295.63.625h-2c0 .744.598 1.375 1.37 1.375v-2Zm-.631.625c0-.33.267-.625.63-.625v2c.772 0 1.37-.63 1.37-1.375h-2Zm.63-.125a.628.628 0 0 1-.63-.625h2C8.382 8.631 7.784 8 7.012 8v2Zm0-2c-.77 0-1.369.63-1.369 1.375h2c0 .33-.267.625-.63.625V8Zm-.63 5.125v.75h2v-.75h-2Zm1.261.75v-.75h-2v.75h2Zm-.63-.625c.363 0 .63.295.63.625h-2c0 .744.598 1.375 1.37 1.375v-2Zm-.631.625c0-.33.267-.625.63-.625v2c.772 0 1.37-.63 1.37-1.375h-2Zm.63-.125a.628.628 0 0 1-.63-.625h2c0-.744-.598-1.375-1.37-1.375v2Zm0-2c-.77 0-1.369.63-1.369 1.375h2c0 .33-.267.625-.63.625v-2Zm-.63 3.625v.75h2v-.75h-2Zm1.261.75v-.75h-2v.75h2Zm-.63-.625c.363 0 .63.295.63.625h-2c0 .744.598 1.375 1.37 1.375v-2Zm-.631.625c0-.33.267-.625.63-.625v2c.772 0 1.37-.63 1.37-1.375h-2Zm.63-.125a.628.628 0 0 1-.63-.625h2c0-.744-.598-1.375-1.37-1.375v2Zm0-2c-.77 0-1.369.63-1.369 1.375h2c0 .33-.267.625-.63.625v-2Z" mask="url(#a)"></path>
    <path stroke="#E0E0E0" stroke-width="3" d="M5.191 7.2c0-1.284.002-2.16.056-2.835.053-.66.15-.999.268-1.236a2.965 2.965 0 0 1 1.284-1.306c.225-.117.55-.213 1.194-.267.662-.055 1.519-.056 2.784-.056h10.186c1.265 0 2.122.001 2.784.056.644.054.969.15 1.194.267L25.63.49l-.69 1.333c.549.284 1 .74 1.284 1.306.119.237.215.576.268 1.236.054.676.056 1.55.056 2.835v9.6c0 1.284-.002 2.16-.056 2.835-.053.66-.15.999-.268 1.236a2.965 2.965 0 0 1-1.284 1.306c-.225.117-.55.213-1.194.267-.662.055-1.519.056-2.784.056H10.777c-1.265 0-2.122-.001-2.784-.056-.644-.054-.969-.15-1.194-.267-.55-.284-1-.74-1.284-1.306-.119-.237-.215-.576-.268-1.236-.054-.676-.056-1.55-.056-2.835V7.2Z"></path>
  </symbol>
  <symbol xmlns="http://www.w3.org/2000/svg" fill="none" viewBox="0 0 16 16" id="save">
    <path fill="#545454" d="M2 3.333C2 2.597 2.597 2 3.333 2h7.724c.354 0 .693.14.943.39l1.805 1.805a.666.666 0 0 1 .195.472v8c0 .736-.597 1.333-1.333 1.333H3.333A1.333 1.333 0 0 1 2 12.667V3.333Zm4 9.334h4v-4H6v4Zm5.333 0h1.334V4.943l-1.334-1.334v1.058C11.333 5.403 10.736 6 10 6H6a1.333 1.333 0 0 1-1.333-1.333V3.333H3.333v9.334h1.334v-4c0-.737.597-1.334 1.333-1.334h4c.736 0 1.333.597 1.333 1.334v4ZM6 3.333v1.334h4V3.333H6Z"></path>
  </symbol>
</svg>