<svg xmlns="http://www.w3.org/2000/svg" width="31" height="24" fill="none">
  <path fill="#E0E0E0" d="M24.159 17.16c-.33-.395-.992-.762-1.928-1.044-1.984-.62-4.133-1.381-4.133-2.763v-.592c0-.676.193-1.127.303-1.297.055-.084.083-.113.083-.14.633-.198.909-1.072.826-1.608-.027-.254-.138-.395-.248-.451 0-.17.055-.423.055-.62.028-.254.083-.536.083-.79V7.63c-.028-.508-.138-.959-.386-1.325-.578-1.128-1.68-1.805-2.92-1.805s-2.342.705-2.92 1.805c-.22.394-.359.845-.386 1.325v.253c0 .254.055.508.083.79.027.197.055.451.055.62a.647.647 0 0 0-.248.451c-.083.536.193 1.41.826 1.607 0 0 .028.057.083.113.11.198.303.62.303 1.297v.621c0 1.381-2.121 2.142-4.133 2.763-.964.282-1.598.648-1.928 1.043-.248.31-.248.564-.248.677v1.494c0 .056.027.141.165.141h16.668c.138 0 .138-.141.138-.141v-1.494c0-.15.055-.423-.193-.705Z"/>
  <path stroke="#E0E0E0" d="M23.776 17.48c-.236-.28-.782-.611-1.69-.885l-.005-.001c-.987-.309-2.068-.668-2.905-1.138-.811-.455-1.578-1.119-1.578-2.103V12.76c0-.765.216-1.312.384-1.57l.002.001h-.002l.002-.003v-.234l.35-.11c.131-.04.27-.167.375-.401.103-.234.132-.49.107-.652l-.002-.01V9.77a.342.342 0 0 0-.018-.08l-.234-.12v-.305c0-.114.017-.245.029-.34 0-.008.002-.015.003-.022.014-.116.023-.197.023-.258v-.027l.003-.027c.013-.116.027-.215.04-.306.022-.159.04-.29.04-.43V7.643c-.026-.45-.123-.798-.3-1.06l-.017-.024-.014-.027C17.875 5.569 16.943 5 15.894 5c-1.043 0-1.98.592-2.478 1.537l-.006.011a2.58 2.58 0 0 0-.322 1.097V7.884c0 .093.01.194.027.32l.013.095c.013.096.028.206.04.316.027.2.058.477.058.68v.246l-.196.15a.123.123 0 0 0-.031.035.197.197 0 0 0-.025.08l-.001.008-.001.008c-.025.162.004.417.107.65.104.235.244.363.374.403l.206.064.087.178.045.046.032.058c.143.256.367.762.367 1.541v.057l9.586 4.663Zm0 0 .008.01m-.008-.01.008.01m0 0 .375-.33-.375.33Zm-9.594-4.11v.002-.002Zm0 0v-.001m0 .001v-.001m0 0v-.002m0 .002v-.002m0 0v-.001m0 .001v-.001m0 0v-.002m0 .002v-.002m0 0v-.001m0 .001v-.001m0 0v-.002m0 .002v-.002m0 0v-.001m0 .001v-.001m0 0v-.002m0 .002v-.002m0 0v-.001m0 .001v-.001m0 0v-.002m0 .002v-.002m0 0v-.001m0 .001v-.001m0 0v-.002m0 .002v-.002m0 0v-.001m0 .001v-.001m0 0v-.002m0 .002v-.002m0 0v-.001m0 .001v-.001m0 0v-.002m0 .002v-.002m0 0v-.001m0 .001v-.001m0 0v-.002m0 .002v-.002m0 0v-.001m0 .001v-.001m0 0v-.002m0 .002v-.002m0 0v-.001m0 .001v-.001m0 0v-.002m0 .002v-.002m0 0v-.001m0 .001v-.001m0 0v-.002m0 .002v-.002m0 0v-.001m0 .001v-.001m0 0v-.002m0 .002v-.002m0 0v-.001m0 .002v-.002m0 0v-.002m0 .002v-.002m0 0v-.001m0 .002v-.002m0 0v-.002m0 .002v-.002m0 0v-.001m0 .002v-.002m0 0v-.001m0 .001v-.001m0 0v-.002m0 .002v-.002m0 0v-.001m0 .001v-.001m0 0v-.002m0 .002v-.002m0 0v-.001m0 .001v-.001m0 0v-.002m0 .002v-.002m0 0v-.001m0 .001v-.001m0 0v-.002m0 .002v-.002m0 0v-.001m0 .001v-.001m0 0v-.002m0 .002v-.002m0 0v-.001m0 .001v-.001m0 0v-.002m0 .002v-.002m0 0v-.001m0 .001v-.001m0 0v-.002m0 .002v-.002m0 0v-.001m0 .001v-.001m0 0v-.002m0 .002v-.002m0 0v-.001m0 .001v-.001m0 0v-.002m0 .002v-.002m0 0v-.001m0 .001v-.001m0 0v-.001m0 0v-.002m0 .002v-.002m0 0v-.002m0 .002v-.002m0 0V13.3m0 .002V13.3m0 0v-.001m0 .001v-.001m0 0v-.002m0 .002v-.002m0 0v-.001m0 .001v-.001m0 0v-.002m0 .002v-.002m0 0v-.001m0 .001v-.001m0 0v-.002m0 .002v-.002m0 0v-.001m0 .001v-.001m0 0v-.002m0 .002v-.002m0 0v-.001m0 .001v-.001m0 0v-.002m0 .002v-.002m0 0v-.001m0 .001v-.001m0 0v-.002m0 .002v-.002m0 0v-.001m0 .001v-.001m0 0v-.002m0 .002v-.002m0 0v-.001m0 .002v-.002m0 0v-.002m0 .002v-.002m0 0v-.002m0 .001v-.001m0 0v-.002m0 .002v-.002m0 0v-.001m0 .001v-.001m0 0v-.002m0 .002v-.002m0 0v-.001m0 .001v-.001m0 0v-.002m0 .002v-.002m0 0v-.001m0 .001v-.001m0 0v-.002m0 .002v-.002m0 0v-.001m0 .001v-.001m0 0v-.002m0 .002v-.002m0 0v-.001m0 .002v-.002m0 0v-.001m0 .001v-.001m0 0v-.002m0 .002v-.002m0 0v-.001m0 .001v-.001m0 0v-.002m0 .002v-.002m0 0v-.001m0 .001v-.001m0 0v-.002m0 .002v-.002m0 0v-.001m0 .001v-.001m0 0v-.002m0 .002v-.002m0 0v-.001m0 .001v-.001m0 0v-.002m0 .002v-.002m0 0v-.001m0 .002v-.002m0 0v-.001m0 .001v-.001m0 0v-.002m0 .002v-.002m0 0v-.001m0 .001v-.001m0 0v-.002m0 .002v-.002m0 0v-.001m0 .001v-.001m0 0v-.002m0 .002v-.002m0 0v-.001m0 .001v-.001m0 0v-.002m0 .002v-.002m0 0v-.001m0 .002v-.002m0 0v-.001m0 .001v-.001m0 0v-.002m0 .002v-.002m0 0v-.001m0 .001v-.001m0 0v-.002m0 .002v-.002m0 0v-.001m0 .001v-.001m0 0v-.002m0 .002v-.002m0 0v-.001m0 .001v-.001m0 0v-.002m0 .002v-.002m0 0v-.002m0 .001v-.001m0 0v-.002m0 .002v-.002m0 0v-.001m0 .001v-.001m0 0v-.002m0 .002v-.002m0 0v-.001m0 .001v-.001m0 0v-.002m0 .002v-.002m0 0v-.002m0 .001v-.001m0 0v-.002m0 .002v-.002m0 0v-.001m0 .001v-.001m0 0V13.2m0 .002V13.2m0 0V13.2m0 .001V13.2m0 0v-.001m0 .001v-.001m0 0v-.002m0 .002v-.002m0 0v-.001m0 .001v-.001m0 0v-.002m0 .002v-.002m0 0v-.001m0 .001v-.001m0 0v-.002m0 .002v-.002m0 0v-.002m0 .001v-.001m0 0v-.002m0 .002v-.002m0 0v-.001m0 .001v-.001m0 0v-.002m0 .002v-.002m0 0v-.002m0 .001v-.001m0 0v-.002m0 .002v-.002m0 0v-.001m0 .001v-.001m0 0v-.002m0 .002v-.002m0 0v-.002m0 .001v-.001m0 0v-.002m0 .002v-.002m0 0v-.001m0 .001v-.001m0 0v-.002m0 .002v-.002m0 0v-.002m0 .001v-.001m0 0v-.002m0 .002v-.002m0 0v-.001m0 .001v-.001m0 0v-.001m0 0v-.002m0 .002v-.002m0 0v-.001m0 .001v-.001m0 0v-.002m0 .002v-.002m0 0v-.001m0 .001v-.001m0 0v-.001m0 .001v-.001m0 0v-.002m0 .002v-.002m0 0v-.001m0 .001v-.001m0 0v-.002m0 .002v-.002m0 0v-.002m0 .001v-.001m0 0v-.002m0 .002v-.002m0 0v-.001m0 .001v-.001m0 0v-.001m0 .001v-.001m0 0v-.002m0 .002v-.002m0 0v-.001m0 .001v-.001m0 0v-.002m0 .002v-.002m0 0v-.002m0 .001v-.001m0 0v-.002m0 .002v-.002m0 0v-.001m0 .001v-.001m0 0v-.001m0 .001v-.001m0 0v-.002m0 .002v-.002m0 0v-.001m0 .001v-.001m0 0v-.001m0 .001v-.001m0 0v-.002m0 .002v-.002m0 0v-.001m0 .001v-.001m0 0v-.001m0 0v-.002m0 .002v-.002m0 0v-.001m0 .001v-.001m0 0v-.002m0 .002v-.002m0 0v-.002m0 .001v-.001m0 0v-.002m0 .002v-.002m0 0v-.002m0 .001v-.001m0 0v-.002m0 .002v-.002m0 0v-.002m0 .001v-.001m0 0v-.002m0 .002v-.002m0 0v-.002m0 .001v-.001m0 0v-.002m0 .002v-.002m0 0v-.002m0 .001v-.001m0 0v-.002m0 .002v-.002m0 0V13.1m0 .001V13.1m0 0v-.001m0 0v-.002m0 .002v-.002m0 0v-.001m0 .001v-.001m0 0v-.001m0 .001v-.001m0 0v-.002m0 .002v-.002m0 0v-.001m0 .001v-.001m0 0v-.001m0 .001v-.001m0 0v-.002m0 .002v-.002m0 0v-.002m0 .001v-.001m0 0v-.002m0 .002v-.002m0 0v-.002m0 .001v-.001m0 0v-.001m0 .001v-.001m0 0v-.002m0 .002v-.002m0 0v-.002m0 .001v-.001m0 0v-.002m0 .002v-.002m0 0v-.002m0 .001v-.001m0 0v-.001m0 .001v-.001m0 0v-.002m0 .002v-.002m0 0v-.002m0 .001v-.001m0 0v-.001m0 0v-.002m0 .002v-.002m0 0v-.001m0 .001v-.001m0 0v-.001m0 .001v-.001m0 0v-.002m0 .002v-.002m0 0v-.002m0 .001v-.001m0 0v-.001m0 .001v-.001m0 0v-.002m0 .002v-.002m0 0v-.002m0 .001v-.001m0 0v-.001m0 .001v-.001m0 0v-.002m0 .002v-.002m0 0v-.002m0 .001v-.001m0 0v-.001m0 .001v-.001m0 0v-.002m0 .002v-.002m0 0v-.002m0 .001v-.002m0 .001v-.001m0 0v-.001m0 0v-.002m0 .002v-.002m0 0v-.002m0 .001v-.001m0 0v-.001m0 0v-.002m0 .002v-.002m0 0v-.002m0 .001v-.001m0 0v-.001m0 .001v-.001m0 0v-.001m0 0v-.002m0 .002v-.002m0 0v-.002m0 .001v-.001m0 0v-.001m0 .001v-.001m0 0v-.001m0 0v-.002m0 .002v-.002m0 0v-.002m0 .001v-.001m0 0v-.001m0 .001v-.001m0 0v-.001m0 0v-.002m0 .002v-.002m0 0v-.002m0 .001v-.002m0 .001v-.001m0 0v-.001m0 0v-.001m0 0v-.002m0 .002v-.002m0 0v-.002m0 .001v-.002m0 .001v-.001m0 0v-.001m0 0v-.001m0 0v-.002m0 .002v-.002m0 0v-.002m0 .001V13m0 .001v-.001m0 0V13m0 .001V13m0 0v-.001m0 0v-.002m0 .002v-.002m0 0v-.002m0 .001v-.002m0 .001v-.002m0 .001v-.001m0 0v-.001m0 .001v-.001m0 0v-.001m0 0v-.001m0 0v-.002m0 .002v-.002m0 0v-.002m0 .001v-.002m0 .001v-.002m0 .001v-.001m0 0v-.001m0 .001v-.001m0 0v-.001m0 0v-.001m0 0v-.001m0 0v-.002m0 .002v-.002m0 0v-.002m0 .001v-.002m0 .001v-.002m0 .001v-.002m0 .001v-.001m0 0v-.001m0 .001v-.001m0 0v-.001m0 .001v-.001m0 0v-.001m0 0v-.001m0 0v-.001m0 0v-.001m0 0v-.002m0 .002v-.002m0 0Zm-4.492 3.66.007-.003-.148-.477.14.48Z"/>
  <mask id="a" fill="#fff">
    <path d="M2.215 7.125c0-.207.165-.375.369-.375s.369.168.369.375v.75a.372.372 0 0 1-.37.375.372.372 0 0 1-.368-.375v-.75ZM2.215 9.375c0-.207.165-.375.369-.375s.369.168.369.375v.75a.372.372 0 0 1-.37.375.372.372 0 0 1-.368-.375v-.75ZM2.215 13.125c0-.207.165-.375.369-.375s.369.168.369.375v.75a.372.372 0 0 1-.37.375.372.372 0 0 1-.368-.375v-.75ZM2.215 15.375c0-.207.165-.375.369-.375s.369.168.369.375v.75a.372.372 0 0 1-.37.375.372.372 0 0 1-.368-.375v-.75ZM6.643 7.125c0-.207.166-.375.37-.375.203 0 .369.168.369.375v.75a.372.372 0 0 1-.37.375.372.372 0 0 1-.369-.375v-.75ZM6.643 9.375c0-.207.166-.375.37-.375.203 0 .369.168.369.375v.75a.372.372 0 0 1-.37.375.372.372 0 0 1-.369-.375v-.75ZM6.643 13.125c0-.207.166-.375.37-.375.203 0 .369.168.369.375v.75a.372.372 0 0 1-.37.375.372.372 0 0 1-.369-.375v-.75ZM6.643 15.375c0-.207.166-.375.37-.375.203 0 .369.168.369.375v.75a.372.372 0 0 1-.37.375.372.372 0 0 1-.369-.375v-.75Z"/>
  </mask>
  <path fill="#E0E0E0" d="M2.215 7.125c0-.207.165-.375.369-.375s.369.168.369.375v.75a.372.372 0 0 1-.37.375.372.372 0 0 1-.368-.375v-.75ZM2.215 9.375c0-.207.165-.375.369-.375s.369.168.369.375v.75a.372.372 0 0 1-.37.375.372.372 0 0 1-.368-.375v-.75ZM2.215 13.125c0-.207.165-.375.369-.375s.369.168.369.375v.75a.372.372 0 0 1-.37.375.372.372 0 0 1-.368-.375v-.75ZM2.215 15.375c0-.207.165-.375.369-.375s.369.168.369.375v.75a.372.372 0 0 1-.37.375.372.372 0 0 1-.368-.375v-.75ZM6.643 7.125c0-.207.166-.375.37-.375.203 0 .369.168.369.375v.75a.372.372 0 0 1-.37.375.372.372 0 0 1-.369-.375v-.75ZM6.643 9.375c0-.207.166-.375.37-.375.203 0 .369.168.369.375v.75a.372.372 0 0 1-.37.375.372.372 0 0 1-.369-.375v-.75ZM6.643 13.125c0-.207.166-.375.37-.375.203 0 .369.168.369.375v.75a.372.372 0 0 1-.37.375.372.372 0 0 1-.369-.375v-.75ZM6.643 15.375c0-.207.166-.375.37-.375.203 0 .369.168.369.375v.75a.372.372 0 0 1-.37.375.372.372 0 0 1-.369-.375v-.75Z"/>
  <path fill="#E0E0E0" d="M1.953 7.125v.75h2v-.75h-2Zm1.262.75v-.75h-2v.75h2Zm-.631-.625c.363 0 .63.295.63.625h-2c0 .744.599 1.375 1.37 1.375v-2Zm-.631.625c0-.33.267-.625.63-.625v2c.772 0 1.37-.63 1.37-1.375h-2Zm.63-.125a.628.628 0 0 1-.63-.625h2c0-.744-.598-1.375-1.37-1.375v2Zm0-2c-.77 0-1.368.63-1.368 1.375h2c0 .33-.268.625-.631.625v-2Zm-.63 3.625v.75h2v-.75h-2Zm1.262.75v-.75h-2v.75h2ZM2.584 9.5c.363 0 .63.295.63.625h-2c0 .744.599 1.375 1.37 1.375v-2Zm-.631.625c0-.33.267-.625.63-.625v2c.772 0 1.37-.63 1.37-1.375h-2Zm.63-.125a.628.628 0 0 1-.63-.625h2C3.953 8.631 3.355 8 2.583 8v2Zm0-2c-.77 0-1.368.63-1.368 1.375h2c0 .33-.268.625-.631.625V8Zm-.63 5.125v.75h2v-.75h-2Zm1.262.75v-.75h-2v.75h2Zm-.631-.625c.363 0 .63.295.63.625h-2c0 .744.599 1.375 1.37 1.375v-2Zm-.631.625c0-.33.267-.625.63-.625v2c.772 0 1.37-.63 1.37-1.375h-2Zm.63-.125a.628.628 0 0 1-.63-.625h2c0-.744-.598-1.375-1.37-1.375v2Zm0-2c-.77 0-1.368.63-1.368 1.375h2c0 .33-.268.625-.631.625v-2Zm-.63 3.625v.75h2v-.75h-2Zm1.262.75v-.75h-2v.75h2Zm-.631-.625c.363 0 .63.295.63.625h-2c0 .744.599 1.375 1.37 1.375v-2Zm-.631.625c0-.33.267-.625.63-.625v2c.772 0 1.37-.63 1.37-1.375h-2Zm.63-.125a.628.628 0 0 1-.63-.625h2c0-.744-.598-1.375-1.37-1.375v2Zm0-2c-.77 0-1.368.63-1.368 1.375h2c0 .33-.268.625-.631.625v-2Zm3.799-6.875v.75h2v-.75h-2Zm1.261.75v-.75h-2v.75h2Zm-.63-.625c.363 0 .63.295.63.625h-2c0 .744.598 1.375 1.37 1.375v-2Zm-.631.625c0-.33.267-.625.63-.625v2c.772 0 1.37-.63 1.37-1.375h-2Zm.63-.125a.628.628 0 0 1-.63-.625h2c0-.744-.598-1.375-1.37-1.375v2Zm0-2c-.77 0-1.369.63-1.369 1.375h2c0 .33-.267.625-.63.625v-2Zm-.63 3.625v.75h2v-.75h-2Zm1.261.75v-.75h-2v.75h2Zm-.63-.625c.363 0 .63.295.63.625h-2c0 .744.598 1.375 1.37 1.375v-2Zm-.631.625c0-.33.267-.625.63-.625v2c.772 0 1.37-.63 1.37-1.375h-2Zm.63-.125a.628.628 0 0 1-.63-.625h2C8.382 8.631 7.784 8 7.012 8v2Zm0-2c-.77 0-1.369.63-1.369 1.375h2c0 .33-.267.625-.63.625V8Zm-.63 5.125v.75h2v-.75h-2Zm1.261.75v-.75h-2v.75h2Zm-.63-.625c.363 0 .63.295.63.625h-2c0 .744.598 1.375 1.37 1.375v-2Zm-.631.625c0-.33.267-.625.63-.625v2c.772 0 1.37-.63 1.37-1.375h-2Zm.63-.125a.628.628 0 0 1-.63-.625h2c0-.744-.598-1.375-1.37-1.375v2Zm0-2c-.77 0-1.369.63-1.369 1.375h2c0 .33-.267.625-.63.625v-2Zm-.63 3.625v.75h2v-.75h-2Zm1.261.75v-.75h-2v.75h2Zm-.63-.625c.363 0 .63.295.63.625h-2c0 .744.598 1.375 1.37 1.375v-2Zm-.631.625c0-.33.267-.625.63-.625v2c.772 0 1.37-.63 1.37-1.375h-2Zm.63-.125a.628.628 0 0 1-.63-.625h2c0-.744-.598-1.375-1.37-1.375v2Zm0-2c-.77 0-1.369.63-1.369 1.375h2c0 .33-.267.625-.63.625v-2Z" mask="url(#a)"/>
  <path stroke="#E0E0E0" stroke-width="3" d="M5.191 7.2c0-1.284.002-2.16.056-2.835.053-.66.15-.999.268-1.236a2.965 2.965 0 0 1 1.284-1.306c.225-.117.55-.213 1.194-.267.662-.055 1.519-.056 2.784-.056h10.186c1.265 0 2.122.001 2.784.056.644.054.969.15 1.194.267L25.63.49l-.69 1.333c.549.284 1 .74 1.284 1.306.119.237.215.576.268 1.236.054.676.056 1.55.056 2.835v9.6c0 1.284-.002 2.16-.056 2.835-.053.66-.15.999-.268 1.236a2.965 2.965 0 0 1-1.284 1.306c-.225.117-.55.213-1.194.267-.662.055-1.519.056-2.784.056H10.777c-1.265 0-2.122-.001-2.784-.056-.644-.054-.969-.15-1.194-.267-.55-.284-1-.74-1.284-1.306-.119-.237-.215-.576-.268-1.236-.054-.676-.056-1.55-.056-2.835V7.2Z"/>
</svg>
