<svg xmlns="http://www.w3.org/2000/svg" width="16" height="16" fill="none">
  <path fill="#545454" d="M2 3.333C2 2.597 2.597 2 3.333 2h7.724c.354 0 .693.14.943.39l1.805 1.805a.666.666 0 0 1 .195.472v8c0 .736-.597 1.333-1.333 1.333H3.333A1.333 1.333 0 0 1 2 12.667V3.333Zm4 9.334h4v-4H6v4Zm5.333 0h1.334V4.943l-1.334-1.334v1.058C11.333 5.403 10.736 6 10 6H6a1.333 1.333 0 0 1-1.333-1.333V3.333H3.333v9.334h1.334v-4c0-.737.597-1.334 1.333-1.334h4c.736 0 1.333.597 1.333 1.334v4ZM6 3.333v1.334h4V3.333H6Z"/>
</svg>
