<svg xmlns="http://www.w3.org/2000/svg" width="16" height="16">
  <path d="M9.898 3.589c-.284-.122-.489-.39-.489-.7 0-.454.426-.79.848-.624a6.17 6.17 0 0 1 3.478 3.481c.167.423-.17.848-.624.848-.31 0-.578-.204-.7-.488A4.807 4.807 0 0 0 9.898 3.59Zm-6.31 2.517c-.121.284-.39.488-.7.488-.453 0-.79-.425-.623-.847a6.168 6.168 0 0 1 3.481-3.482c.423-.166.848.17.848.624 0 .31-.204.578-.488.7A4.813 4.813 0 0 0 3.59 6.106Zm2.52 6.31c.283.121.486.389.486.697 0 .453-.424.789-.846.623a6.17 6.17 0 0 1-3.483-3.479c-.166-.422.17-.848.624-.848.31 0 .578.205.7.49a4.813 4.813 0 0 0 2.519 2.516Zm6.303-2.518c.122-.284.39-.489.7-.489.454 0 .79.426.624.848a6.172 6.172 0 0 1-3.478 3.478c-.422.166-.848-.17-.848-.624 0-.31.205-.578.49-.7a4.802 4.802 0 0 0 2.512-2.513Z"/>
</svg>
