<svg xmlns="http://www.w3.org/2000/svg" width="17" height="16" fill="none">
  <path fill="#DDD" d="M7.167 2.666a2.667 2.667 0 1 0 0 5.334 2.667 2.667 0 0 0 0-5.334Zm-4 2.667a4 4 0 1 1 8 0 4 4 0 0 1-8 0Zm10 2c.369 0 .667.298.667.667v.666h.667a.667.667 0 0 1 0 1.334h-.667v.666a.667.667 0 0 1-1.333 0V10h-.667a.667.667 0 1 1 0-1.334h.667V8c0-.369.298-.667.666-.667ZM4.834 12c-.84 0-1.667.809-1.667 2a.667.667 0 0 1-1.333 0c0-1.755 1.262-3.334 3-3.334h4.667c1.737 0 3 1.58 3 3.334a.667.667 0 0 1-1.334 0c0-1.191-.827-2-1.666-2H4.834Z"/>
</svg>
